PathFileType	4	(X/Y/Z)	/Users/niels/Desktop/University/Third Semester/Perception and Action/Exam/Gymnastics Motion Tracking/Code for Gym Tracking/Analyzed Data/Webcam_Backflip/id5_5_trajectory_Sports2D/id5_5_trajectory_Sports2D_px_person00.trc
DataRate	CameraRate	NumFrames	NumMarkers	Units	OrigDataRate	OrigDataStartFrame	OrigNumFrames
29.81132075471698	29.81132075471698	9	22	m	29.81132075471698	39	159
Frame#	Time	Hip			RHip			RKnee			RAnkle			RBigToe			RSmallToe			RHeel			LHip			LKnee			LAnkle			LBigToe			LSmallToe			LHeel			Neck			Head			Nose			RShoulder			RElbow			RWrist			LShoulder			LElbow			LWrist		
		X1	Y1	Z1	X2	Y2	Z2	X3	Y3	Z3	X4	Y4	Z4	X5	Y5	Z5	X6	Y6	Z6	X7	Y7	Z7	X8	Y8	Z8	X9	Y9	Z9	X10	Y10	Z10	X11	Y11	Z11	X12	Y12	Z12	X13	Y13	Z13	X14	Y14	Z14	X15	Y15	Z15	X16	Y16	Z16	X17	Y17	Z17	X18	Y18	Z18	X19	Y19	Z19	X20	Y20	Z20	X21	Y21	Z21	X22	Y22	Z22
39	1.3082278481012657	0.8778700309531434	-0.3108939343341166	0.0	0.8651982343813108	-0.31204947631213564	0.0	0.8227947879535841	-0.41188862222397804	0.0	0.7608503933394419	-0.3865982971294537	0.0	0.7458535745995957	-0.42354872856683023	0.0	0.7398150523827294	-0.4147249421697666	0.0	0.7498207171321686	-0.3757858887919397	0.0	0.8944584110612767	-0.31428592111301695	0.0	0.836449949566611	-0.4074506717618564	0.0	0.7783082023529774	-0.3869600005635484	0.0	0.7468980358226822	-0.42298625477415536	0.0	0.754396749865898	-0.42028498672133924	0.0	0.77305404600402	-0.3733145231644647	0.0	0.9639073224527046	-0.41071987865304166	0.0	1.0024795717728872	-0.4589896206797556	0.0	0.9700858640208744	-0.4547814620050941	0.0	0.941155804410073	-0.40028922177981996	0.0	0.8822729889906545	-0.3919103863597682	0.0	0.8637963193872787	-0.42478259198528345	0.0	0.9778610195824933	-0.3928403309052083	0.0	0.9881438448534045	-0.3882634918418578	0.0	1.028240592519489	-0.3988622434791941	0.0
40	1.3417721518987342	0.8616536772028252	-0.3331288129917783	0.0	0.8504375488514765	-0.3345947982650061	0.0	0.8279526545797633	-0.44672054521189114	0.0	0.7538227341393644	-0.45591728937655324	0.0	0.7490326969171628	-0.5011164527786013	0.0	0.7410913655502329	-0.4937052603105628	0.0	0.7394123623681388	-0.44840164782407177	0.0	0.877168522187469	-0.3345449896445114	0.0	0.8357109298173623	-0.44040402433033377	0.0	0.7680945994328282	-0.4516750973310395	0.0	0.7496944751110836	-0.4938136307059885	0.0	0.7546904129101297	-0.488688805154303	0.0	0.7555996821798835	-0.4429257180486659	0.0	0.9705552962805488	-0.4012094583509897	0.0	1.0216868715091356	-0.44041533792347165	0.0	0.9864316134640606	-0.4409627360674561	0.0	0.948630354183127	-0.396174468815055	0.0	0.8939329623074773	-0.4124447924302638	0.0	0.8868613628005937	-0.4567194250480293	0.0	0.9805536002787781	-0.383963094734755	0.0	0.9949687236981254	-0.3871854825725489	0.0	1.0302300334452554	-0.3938272114548461	0.0
41	1.3753164556962025	0.847698507029539	-0.3638582117389134	0.0	0.8391865560270356	-0.36527458607768665	0.0	0.8329644852105038	-0.48332971688329185	0.0	0.7587053116697036	-0.5263067076125435	0.0	0.763962809199845	-0.5739163027021157	0.0	0.7552239138641804	-0.5685843337780608	0.0	0.7425570679064704	-0.5231984197142442	0.0	0.8597151831398203	-0.36340095180990983	0.0	0.8338423270107508	-0.47657357944033	0.0	0.7662583885875948	-0.5181310573084128	0.0	0.7627907574439875	-0.5628029230291228	0.0	0.7642274985009442	-0.5559791746133301	0.0	0.7492244392719623	-0.5148460017289146	0.0	0.9688763900961227	-0.39382537328605643	0.0	1.0291728889749674	-0.4204183465271403	0.0	0.993036541440349	-0.4267893538925333	0.0	0.9499663285407133	-0.39343231635053033	0.0	0.9090060392323734	-0.43018699572449776	0.0	0.9178238212335328	-0.47990317317556624	0.0	0.9740577521911837	-0.3776475709868154	0.0	0.991844187443754	-0.3896105414891238	0.0	1.024867773734701	-0.3937279568983669	0.0
42	1.4088607594936708	0.8370325480498693	-0.4014620616032088	0.0	0.8319525136891959	-0.40262236629092135	0.0	0.8375300137911535	-0.5223331213656078	0.0	0.771435776857644	-0.5934662803352558	0.0	0.7846912982509942	-0.6388678168978739	0.0	0.7761734602334709	-0.6358608231772377	0.0	0.7550102401164762	-0.5951101465205993	0.0	0.8439516800532303	-0.39951472064503996	0.0	0.8308646381086576	-0.51612179473636	0.0	0.7697601959610642	-0.5824518931369429	0.0	0.780010024680128	-0.626396440837571	0.0	0.7774218472350843	-0.6187766435642356	0.0	0.7515313351908611	-0.5842349582166743	0.0	0.9597589782121883	-0.39089103773801187	0.0	1.0246728322414271	-0.4020408282666342	0.0	0.9903683583892846	-0.41544784985807687	0.0	0.9450863320937265	-0.3942190248595812	0.0	0.9248760749004193	-0.44349718705702484	0.0	0.9514506546727031	-0.4908999132879136	0.0	0.9595401647498641	-0.3764356928946895	0.0	0.9817573390785075	-0.3985258442674442	0.0	1.0158266534990048	-0.4010186552797717	0.0
43	1.4424050632911392	0.8301491990627327	-0.4438087664444445	0.0	0.8285518191813601	-0.4446286368331092	0.0	0.8418696932888797	-0.5636165091204955	0.0	0.7872391940504478	-0.6550605372354684	0.0	0.8059125922166681	-0.6954575201621999	0.0	0.7982350328094603	-0.6947557546553905	0.0	0.7714937874465434	-0.6611579530475998	0.0	0.8316690490150989	-0.44082866934951703	0.0	0.827729426368327	-0.5584447416689892	0.0	0.7755834926536136	-0.6422236533611115	0.0	0.796326176382334	-0.6830721907168056	0.0	0.7898370550005673	-0.6751865574657522	0.0	0.7586283269809414	-0.648201444433198	0.0	0.9448717121150679	-0.3941895432588234	0.0	1.0094101242122613	-0.38824233280641623	0.0	0.9798621217906807	-0.40908226744686393	0.0	0.934569461947404	-0.4004537322101721	0.0	0.9380847312164567	-0.4520647843039227	0.0	0.9806451240003015	-0.48902578858008716	0.0	0.9391793421900769	-0.3826335467441757	0.0	0.9692225380131719	-0.41264076524185594	0.0	1.0064607838109998	-0.412048096470066	0.0
44	1.4759493670886075	0.8267515996352853	-0.48840100896104177	0.0	0.8280979909125454	-0.4889139837030261	0.0	0.8460129247984102	-0.606242361486071	0.0	0.8017836652424725	-0.7099793070586707	0.0	0.8240721072579329	-0.7446051455383422	0.0	0.8173210798887536	-0.7459763596231901	0.0	0.787113468211926	-0.7196960277639131	0.0	0.8237212540022024	-0.4848874199423285	0.0	0.8253618870309279	-0.6022366750212446	0.0	0.7813279728776321	-0.6962845393545699	0.0	0.8090666005752828	-0.7331145647931997	0.0	0.7992319931713966	-0.724617698843771	0.0	0.7666121580048254	-0.7054619769415462	0.0	0.9262086103924313	-0.4045748204198886	0.0	0.9858172317779113	-0.3815359377664351	0.0	0.9634409049888176	-0.40898834741393925	0.0	0.9196399097806249	-0.4132780919627422	0.0	0.9455390201241068	-0.4569867609062715	0.0	0.9989320398934785	-0.4768066282770874	0.0	0.915633099664924	-0.3972868195741766	0.0	0.9565753801176219	-0.4279527136687303	0.0	0.9970278330100903	-0.4203026687799696	0.0
45	1.5094936708860758	0.8258064688215377	-0.5325237666508208	0.0	0.8292154904233366	-0.5328563141977875	0.0	0.8496396668211157	-0.648485900372459	0.0	0.81204103636192	-0.7574096240692393	0.0	0.8374773683046126	-0.7874519657454104	0.0	0.831222413292702	-0.7904302873020485	0.0	0.7983121543642724	-0.7694697011148235	0.0	0.8196944052855623	-0.5290377058692401	0.0	0.8240505895112727	-0.6455507738443128	0.0	0.78542134828719	-0.7438932229251881	0.0	0.8174510593271531	-0.7775428644256399	0.0	0.8050375859695479	-0.7669925394500265	0.0	0.7726765410580716	-0.755140924820806	0.0	0.9058320539023869	-0.42167879567385375	0.0	0.957168656421118	-0.38337051430357816	0.0	0.9432969914665057	-0.41574631890914243	0.0	0.9020212272251841	-0.4324483758634433	0.0	0.9455341385489063	-0.46015763128767223	0.0	1.0027283530332327	-0.459127665741325	0.0	0.8915918859254148	-0.4196174794384822	0.0	0.9435743185530302	-0.44169616065571204	0.0	0.9858165047649086	-0.4231809069995573	0.0
46	1.5430379746835443	0.8259618469407725	-0.5733505099160383	0.0	0.8304635349118593	-0.5736308843719939	0.0	0.8522953456284881	-0.6878483383645749	0.0	0.8169009724864225	-0.7963890397824173	0.0	0.8457351620582911	-0.8243253821168253	0.0	0.8392859405665247	-0.8282158313655359	0.0	0.8035913180504729	-0.8093687708376295	0.0	0.8183572194011792	-0.5704189382285585	0.0	0.823485318265457	-0.6857601992558289	0.0	0.7871160513446934	-0.7839478317013373	0.0	0.8214607856013314	-0.8166494662210996	0.0	0.8071958286049786	-0.8019143776160256	0.0	0.7755647787220509	-0.795967862067762	0.0	0.8856890558560836	-0.4437750546642188	0.0	0.927322741436126	-0.39360398437106736	0.0	0.9218320848870675	-0.4289207773039701	0.0	0.8836174577208302	-0.4559691560321383	0.0	0.9381391324393824	-0.4633642452163361	0.0	0.9923381193214509	-0.44147542215115754	0.0	0.8695077061829206	-0.44698583531189445	0.0	0.9296093232914416	-0.4536516419903685	0.0	0.971635471311484	-0.4233096129617306	0.0
47	1.5765822784810126	0.8260951970817153	-0.6081163818096418	0.0	0.8308265492731831	-0.6083855501655742	0.0	0.8537483349591573	-0.7212880639466921	0.0	0.8171812496506703	-0.8258747372631027	0.0	0.8491156576814188	-0.8540673212282526	0.0	0.8419942559768495	-0.8580658698079229	0.0	0.8036637912368793	-0.8386080411433273	0.0	0.8183514373982811	-0.6060621230585427	0.0	0.8232306373829651	-0.7197967764736132	0.0	0.7864879256741543	-0.815031107116918	0.0	0.8213930693806685	-0.8491112049435036	0.0	0.8058179117523311	-0.8286598934919069	0.0	0.7754893418787332	-0.8266059745810749	0.0	0.8673584158389488	-0.4677526430440637	0.0	0.9000743560068285	-0.4100264484705987	0.0	0.9013665467063859	-0.44645017067259585	0.0	0.8660998819124877	-0.48030321634549755	0.0	0.9250168159403855	-0.4676475166948615	0.0	0.9715316939962485	-0.4281739081821027	0.0	0.8512426489124372	-0.4752695986724393	0.0	0.915032329450114	-0.464607194334554	0.0	0.9548260622711208	-0.42429166206260693	0.0
